<?xml version="1.0" standalone="no"?>
<!DOCTYPE svg PUBLIC "-//W3C//DTD SVG 20010904//EN"
 "http://www.w3.org/TR/2001/REC-SVG-20010904/DTD/svg10.dtd">
<svg version="1.0" xmlns="http://www.w3.org/2000/svg"
 width="260.000000pt" height="260.000000pt" viewBox="0 0 260.000000 260.000000"
 preserveAspectRatio="xMidYMid meet">
<metadata>
Created by potrace 1.11, written by Peter Selinger 2001-2013
</metadata>
<g transform="translate(0.000000,260.000000) scale(0.100000,-0.100000)"
fill="#000000" stroke="none">
<path d="M383 2586 c-181 -44 -334 -202 -372 -384 -15 -74 -15 -1730 0 -1804
39 -187 200 -348 387 -387 74 -15 1730 -15 1804 0 187 39 348 200 387 387 15
74 15 1730 0 1804 -39 187 -200 348 -387 387 -80 17 -1749 14 -1819 -3z m1135
-611 c130 -31 215 -93 264 -193 30 -60 33 -75 32 -152 0 -68 -5 -95 -23 -133
-29 -59 -107 -130 -169 -153 -67 -25 -69 -30 -15 -38 94 -12 193 -90 237 -185
17 -38 21 -65 21 -151 0 -94 -3 -111 -28 -161 -32 -67 -104 -137 -177 -174
-96 -49 -154 -55 -532 -55 l-348 0 0 705 0 705 338 0 c262 0 351 -4 400 -15z"/>
<path d="M1080 1575 l0 -177 148 4 c134 3 151 6 192 28 62 35 90 80 90 144 0
68 -26 115 -81 146 -40 23 -56 25 -196 28 l-153 4 0 -177z"/>
<path d="M1080 1015 l0 -186 178 3 c149 3 183 6 215 22 60 30 82 69 82 147 0
84 -31 135 -102 170 -43 21 -64 24 -210 27 l-163 4 0 -187z"/>
</g>
</svg>
